<svg width="640" height="640" viewBox="0 0 640 640" fill="none" xmlns="http://www.w3.org/2000/svg">
  <defs>
    <linearGradient id="bg" x1="80" y1="40" x2="560" y2="620" gradientUnits="userSpaceOnUse">
      <stop stop-color="#FFE4F1"/>
      <stop offset="0.55" stop-color="#EEF2FF"/>
      <stop offset="1" stop-color="#DBEAFE"/>
    </linearGradient>
    <linearGradient id="hair" x1="219" y1="118" x2="437" y2="318" gradientUnits="userSpaceOnUse">
      <stop stop-color="#3B2A45"/>
      <stop offset="1" stop-color="#151827"/>
    </linearGradient>
    <linearGradient id="suit" x1="210" y1="360" x2="440" y2="620" gradientUnits="userSpaceOnUse">
      <stop stop-color="#F9A8D4"/>
      <stop offset="1" stop-color="#6366F1"/>
    </linearGradient>
    <filter id="shadow" x="80" y="80" width="480" height="540" filterUnits="userSpaceOnUse" color-interpolation-filters="sRGB">
      <feDropShadow dx="0" dy="18" stdDeviation="18" flood-color="#64748B" flood-opacity="0.22"/>
    </filter>
  </defs>

  <rect width="640" height="640" rx="48" fill="url(#bg)"/>
  <circle cx="116" cy="126" r="38" fill="#FFFFFF" fill-opacity="0.65"/>
  <circle cx="540" cy="118" r="58" fill="#FFFFFF" fill-opacity="0.55"/>
  <circle cx="548" cy="526" r="42" fill="#FFFFFF" fill-opacity="0.55"/>

  <g opacity="0.92">
    <rect x="70" y="212" width="146" height="84" rx="22" fill="white" fill-opacity="0.72"/>
    <rect x="88" y="236" width="90" height="10" rx="5" fill="#A5B4FC"/>
    <rect x="88" y="258" width="68" height="8" rx="4" fill="#F9A8D4"/>
    <rect x="88" y="276" width="104" height="8" rx="4" fill="#CBD5E1"/>

    <rect x="438" y="230" width="120" height="104" rx="22" fill="white" fill-opacity="0.72"/>
    <rect x="458" y="256" width="78" height="10" rx="5" fill="#86EFAC"/>
    <rect x="458" y="280" width="56" height="8" rx="4" fill="#FACC15"/>
    <rect x="458" y="304" width="82" height="8" rx="4" fill="#CBD5E1"/>
  </g>

  <g filter="url(#shadow)">
    <path d="M197 584C209 468 244 392 320 392C396 392 431 468 443 584H197Z" fill="url(#suit)"/>
    <path d="M248 414L320 494L392 414C374 402 349 392 320 392C291 392 266 402 248 414Z" fill="white" fill-opacity="0.95"/>
    <path d="M290 438L320 494L350 438C338 446 326 450 320 450C314 450 302 446 290 438Z" fill="#F472B6"/>

    <path d="M211 250C211 166 256 111 322 111C388 111 435 166 435 250C435 351 386 405 322 405C258 405 211 351 211 250Z" fill="url(#hair)"/>
    <path d="M234 260C234 198 275 156 322 156C369 156 410 198 410 260C410 332 372 378 322 378C272 378 234 332 234 260Z" fill="#FFD7C2"/>
    <path d="M232 249C238 178 281 137 322 137C363 137 404 178 411 249C379 234 353 211 335 178C312 222 278 245 232 249Z" fill="url(#hair)"/>

    <circle cx="289" cy="281" r="7" fill="#1F2937"/>
    <circle cx="356" cy="281" r="7" fill="#1F2937"/>
    <path d="M300 326C315 340 340 340 355 326" stroke="#B45359" stroke-width="6" stroke-linecap="round"/>
    <path d="M322 288C318 304 316 311 322 316" stroke="#E59B88" stroke-width="5" stroke-linecap="round"/>
    <circle cx="264" cy="308" r="14" fill="#F9A8D4" fill-opacity="0.35"/>
    <circle cx="384" cy="308" r="14" fill="#F9A8D4" fill-opacity="0.35"/>

    <rect x="267" y="392" width="110" height="34" rx="17" fill="#FFFFFF" fill-opacity="0.75"/>
    <text x="322" y="415" text-anchor="middle" font-family="Arial, sans-serif" font-size="17" font-weight="700" fill="#4F46E5">AI Secretary</text>
  </g>

  <g opacity="0.95">
    <rect x="116" y="420" width="118" height="76" rx="20" fill="white" fill-opacity="0.72"/>
    <text x="175" y="450" text-anchor="middle" font-family="Arial, sans-serif" font-size="15" font-weight="700" fill="#334155">Strategy</text>
    <text x="175" y="474" text-anchor="middle" font-family="Arial, sans-serif" font-size="18" font-weight="800" fill="#16A34A">HYBRID</text>

    <rect x="422" y="404" width="112" height="86" rx="20" fill="white" fill-opacity="0.72"/>
    <text x="478" y="434" text-anchor="middle" font-family="Arial, sans-serif" font-size="15" font-weight="700" fill="#334155">Portfolio</text>
    <text x="478" y="462" text-anchor="middle" font-family="Arial, sans-serif" font-size="18" font-weight="800" fill="#2563EB">+8.9%</text>
  </g>
</svg>
